<svg xmlns="http://www.w3.org/2000/svg" viewBox="0 0 64 64" role="img" aria-label="Apple logo">
  <defs>
    <linearGradient id="appleGradient" x1="0%" x2="100%" y1="0%" y2="100%">
      <stop offset="0%" stop-color="#a2b6ff"/>
      <stop offset="100%" stop-color="#6b8cff"/>
    </linearGradient>
  </defs>
  <path fill="url(#appleGradient)" d="M46.3 31.4c-.1-7.3 5.9-10.8 6.2-11-3.4-5-8.7-5.6-10.6-5.7-4.5-.5-8.6 2.6-10.8 2.6-2.2 0-5.7-2.5-9.4-2.4-4.8.1-9.3 2.8-11.8 7.2-5 8.7-1.3 21.7 3.6 28.8 2.4 3.5 5.3 7.4 9.1 7.3 3.7-.1 5-2.4 9.4-2.4 4.4 0 5.6 2.4 9.5 2.3 3.9-.1 6.4-3.5 8.8-7.1 2.8-4 3.9-7.9 3.9-8.1-.1-.2-7.5-2.9-7.7-11.5z"/>
  <path fill="#6b8cff" d="M39 11.5c1.9-2.3 3.2-5.4 2.9-8.5-2.8.1-6.1 1.9-8.1 4.2-1.8 2-3.3 5.2-2.9 8.3 3.1.2 6.2-1.6 8.1-4z"/>
</svg>
